<?xml version="1.0" encoding="UTF-8"?>
<svg width="64px" height="64px" viewBox="0 0 64 64" version="1.1" xmlns="http://www.w3.org/2000/svg" xmlns:xlink="http://www.w3.org/1999/xlink">
    <!-- Generator: Sketch 49.1 (51147) - http://www.bohemiancoding.com/sketch -->
    <title>Untitled 2</title>
    <desc>Created with Sketch.</desc>
    <defs></defs>
    <g id="Page-1" stroke="none" stroke-width="1" fill="none" fill-rule="evenodd">
        <g id="icon" fill-rule="nonzero">
            <circle id="Oval" fill="#24488E" cx="32" cy="32" r="32"></circle>
            <g id="Group" opacity="0.2" transform="translate(8.000000, 24.000000)" fill="#231F20">
                <g transform="translate(32.000000, 0.000000)" id="Shape">
                    <path d="M2.461,20 C1.79,20 1.135,19.662 0.756,19.049 C0.176,18.109 0.469,16.877 1.409,16.297 L11.533,10.055 C11.538,10.037 11.54,10.019 11.54,9.999 C11.54,9.979 11.538,9.961 11.533,9.943 L1.41,3.703 C0.47,3.123 0.178,1.891 0.757,0.951 C1.337,0.011 2.569,-0.281 3.509,0.298 L14.139,6.852 L14.304,7.017 C15.101,7.814 15.54,8.873 15.54,10 C15.54,11.126 15.101,12.186 14.304,12.983 L14.138,13.149 L3.508,19.703 C3.182,19.904 2.819,20 2.461,20 Z"></path>
                </g>
                <g id="Shape">
                    <path d="M13.539,20 C13.181,20 12.818,19.904 12.491,19.702 L1.861,13.148 L1.695,12.982 C0.898,12.186 0.459,11.126 0.459,10 C0.459,8.873 0.898,7.813 1.695,7.017 L1.86,6.852 L12.49,0.298 C13.431,-0.282 14.662,0.011 15.242,0.951 C15.822,1.891 15.529,3.123 14.589,3.703 L4.465,9.945 C4.46,9.963 4.458,9.981 4.458,10.001 C4.458,10.021 4.46,10.039 4.465,10.057 L14.589,16.299 C15.529,16.879 15.821,18.111 15.242,19.051 C14.865,19.663 14.209,20 13.539,20 Z"></path>
                </g>
            </g>
            <g id="Group" opacity="0.2" transform="translate(23.000000, 14.000000)" fill="#231F20">
                <g id="Shape">
                    <path d="M2.5,39 C2.263,39 2.021,38.958 1.786,38.868 C0.754,38.473 0.238,37.317 0.632,36.285 L13.632,2.285 C14.027,1.253 15.183,0.736 16.215,1.131 C17.247,1.526 17.763,2.682 17.369,3.714 L4.369,37.714 C4.063,38.511 3.305,39 2.5,39 Z"></path>
                </g>
            </g>
            <g id="Group" transform="translate(8.000000, 21.000000)" fill="#FFFFFF">
                <path d="M34.461,21 C33.79,21 33.134,20.663 32.756,20.05 C32.176,19.11 32.469,17.877 33.409,17.298 L43.532,11.057 C43.542,11.02 43.542,10.981 43.532,10.944 L33.41,4.702 C32.47,4.123 32.177,2.89 32.757,1.95 C33.337,1.01 34.568,0.717 35.509,1.298 L46.14,7.852 L46.306,8.017 C47.95,9.663 47.95,12.338 46.306,13.984 L46.14,14.149 L35.509,20.703 C35.182,20.904 34.819,21 34.461,21 Z" id="Shape"></path>
                <path d="M13.539,21 C13.181,21 12.819,20.904 12.492,20.702 L1.86,14.148 L1.694,13.983 C0.05,12.337 0.05,9.662 1.694,8.016 L1.86,7.851 L12.491,1.297 C13.43,0.716 14.664,1.009 15.243,1.949 C15.823,2.889 15.53,4.122 14.59,4.701 L4.467,10.942 C4.457,10.979 4.457,11.018 4.467,11.055 L14.59,17.296 C15.53,17.875 15.823,19.108 15.243,20.048 C14.865,20.663 14.209,21 13.539,21 Z" id="Shape"></path>
            </g>
            <path d="M25.5,51.001 C25.263,51.001 25.021,50.958 24.786,50.868 C23.754,50.473 23.238,49.317 23.632,48.286 L36.632,14.286 C37.027,13.255 38.183,12.736 39.215,13.132 C40.247,13.527 40.763,14.683 40.369,15.714 L27.369,49.714 C27.063,50.511 26.305,51.001 25.5,51.001 Z" id="Shape" fill="#FFFFFF"></path>
        </g>
    </g>
</svg>